<?xml version="1.0" encoding="UTF-8" standalone="no"?>
<svg
   xmlns:dc="http://purl.org/dc/elements/1.1/"
   xmlns:cc="http://creativecommons.org/ns#"
   xmlns:rdf="http://www.w3.org/1999/02/22-rdf-syntax-ns#"
   xmlns:svg="http://www.w3.org/2000/svg"
   xmlns="http://www.w3.org/2000/svg"
   xmlns:sodipodi="http://sodipodi.sourceforge.net/DTD/sodipodi-0.dtd"
   xmlns:inkscape="http://www.inkscape.org/namespaces/inkscape"
   version="1.1"
   id="Capa_1"
   x="0px"
   y="0px"
   viewBox="0 0 31.943598 31.943599"
   xml:space="preserve"
   sodipodi:docname="surfboard (1).svg"
   inkscape:version="1.0.2 (e86c8708, 2021-01-15)"
   width="31.943596"
   height="31.943598"><metadata
   id="metadata130"><rdf:RDF><cc:Work
       rdf:about=""><dc:format>image/svg+xml</dc:format><dc:type
         rdf:resource="http://purl.org/dc/dcmitype/StillImage" /><dc:title></dc:title></cc:Work></rdf:RDF></metadata><defs
   id="defs128" /><sodipodi:namedview
   pagecolor="#ffffff"
   bordercolor="#666666"
   borderopacity="1"
   objecttolerance="10"
   gridtolerance="10"
   guidetolerance="10"
   inkscape:pageopacity="0"
   inkscape:pageshadow="2"
   inkscape:window-width="1229"
   inkscape:window-height="773"
   id="namedview126"
   showgrid="false"
   inkscape:zoom="1.1269509"
   inkscape:cx="-322.99541"
   inkscape:cy="256.0005"
   inkscape:window-x="0"
   inkscape:window-y="205"
   inkscape:window-maximized="0"
   inkscape:current-layer="Capa_1"
   fit-margin-top="0"
   fit-margin-left="0"
   fit-margin-right="0"
   fit-margin-bottom="0" />
<g
   id="g93"
   transform="scale(0.06238984)">
	<g
   id="g91">
		<path
   d="m 507.351,14.772 -2.312,-7.81 -7.81,-2.313 C 495.779,4.219 461.07,-5.755 406.525,4.903 375.091,11.045 343.219,22.802 311.796,39.847 272.922,60.934 234.6,90.238 197.893,126.944 118.706,206.131 70.216,284.866 43.483,336.972 14.322,393.81 4.061,431.664 3.638,433.247 L 0,446.883 48.84,463.159 65.116,512 78.753,508.362 c 1.583,-0.423 39.438,-10.684 96.275,-39.845 52.106,-26.734 130.839,-75.223 210.027,-154.411 36.706,-36.706 66.01,-75.028 87.098,-113.902 17.046,-31.424 28.803,-63.295 34.943,-94.729 10.659,-54.543 0.686,-89.252 0.255,-90.703 z M 195.664,423 c -12.042,7.019 -23.254,13.12 -33.398,18.344 -34.85,17.945 -62.451,28.494 -77.818,33.765 L 72.56,439.44 36.891,427.553 C 42.166,412.183 52.714,384.581 70.657,349.736 75.881,339.593 81.982,328.38 89,316.338 h 106.664 z m 30.003,-18.409 V 286.334 H 107.409 c 9.685,-15.026 20.628,-30.915 32.965,-47.384 v 0.06 H 272.99 v 132.615 h 0.06 c -16.469,12.338 -32.358,23.281 -47.383,32.966 z M 477.242,101.777 c -5.76,28.238 -16.597,57.002 -32.209,85.495 -19.652,35.861 -46.969,71.398 -81.193,105.621 -20.488,20.488 -40.93,38.822 -60.848,55.205 V 209.007 h -139.09 c 16.384,-19.918 34.717,-40.36 55.205,-60.848 34.223,-34.223 69.76,-61.54 105.621,-81.192 28.492,-15.613 57.256,-26.451 85.494,-32.209 20.299,-4.14 37.429,-5.024 50.467,-4.664 l -53.131,53.131 21.215,21.215 53.131,-53.131 c 0.362,13.04 -0.522,30.17 -4.662,50.468 z"
   id="path89" />
	</g>
</g>
<g
   id="g95"
   transform="translate(-480.05636)">
</g>
<g
   id="g97"
   transform="translate(-480.05636)">
</g>
<g
   id="g99"
   transform="translate(-480.05636)">
</g>
<g
   id="g101"
   transform="translate(-480.05636)">
</g>
<g
   id="g103"
   transform="translate(-480.05636)">
</g>
<g
   id="g105"
   transform="translate(-480.05636)">
</g>
<g
   id="g107"
   transform="translate(-480.05636)">
</g>
<g
   id="g109"
   transform="translate(-480.05636)">
</g>
<g
   id="g111"
   transform="translate(-480.05636)">
</g>
<g
   id="g113"
   transform="translate(-480.05636)">
</g>
<g
   id="g115"
   transform="translate(-480.05636)">
</g>
<g
   id="g117"
   transform="translate(-480.05636)">
</g>
<g
   id="g119"
   transform="translate(-480.05636)">
</g>
<g
   id="g121"
   transform="translate(-480.05636)">
</g>
<g
   id="g123"
   transform="translate(-480.05636)">
</g>
</svg>
